<?xml version="1.0" encoding="UTF-8"?>
<!DOCTYPE svg PUBLIC "-//W3C//DTD SVG 1.1//EN" "http://www.w3.org/Graphics/SVG/1.1/DTD/svg11.dtd">
<!-- Creator: CorelDRAW -->
<svg xmlns="http://www.w3.org/2000/svg" xml:space="preserve" width="49.1754mm" height="22.4153mm" version="1.1" style="shape-rendering:geometricPrecision; text-rendering:geometricPrecision; image-rendering:optimizeQuality; fill-rule:evenodd; clip-rule:evenodd"
viewBox="0 0 909.77 414.69"
 xmlns:xlink="http://www.w3.org/1999/xlink"
 xmlns:xodm="http://www.corel.com/coreldraw/odm/2003">
 <defs>
  <style type="text/css">
   <![CDATA[
    .fil0 {fill:#231F20}
    .fil2 {fill:#73B369}
    .fil1 {fill:#C8C7C3}
    .fil3 {fill:#F6A82C}
    .fil5 {fill:#FDEED7}
    .fil4 {fill:#FED414}
   ]]>
  </style>
 </defs>
 <g id="Camada_x0020_1">
  <metadata id="CorelCorpID_0Corel-Layer"/>
  <g id="_1736983787728">
   <g>
    <path class="fil0" d="M479.66 144.95l15.89 52.89 -34.91 -0.3 19.02 -52.59zm27.2 85.5c3.36,8.82 5.94,21.11 11.45,26 7.39,6.57 21.67,5.25 26.69,-2.2 7.78,-11.55 -7.54,-44.34 -12.04,-56.08 -6.84,-17.85 -13.36,-36.31 -20.03,-54.88 -7.14,-19.86 -10.79,-38.59 -34.09,-38.01 -21.94,0.55 -26.53,22.47 -33.5,41.03 -6.64,17.7 -13,34.6 -20.07,52.73 -5.06,12.99 -20.81,43.18 -10.97,55.28 6.34,7.79 18.54,7.83 25.16,0.53 5.4,-5.95 7.96,-16.83 10.72,-24.79l56.68 0.39z"/>
    <path class="fil0" d="M718.33 197.84c1.24,-8.68 14.15,-46.82 18.75,-52l15.83 52 -34.58 0.01zm41.08 32.23c9.38,-0 7.51,16.43 14.6,24.45 6.25,7.08 18.99,8.04 26.25,1.34 11.66,-10.74 -4.65,-42.83 -9.46,-55.64 -6.86,-18.29 -13.45,-36.46 -19.96,-54.92 -6.65,-18.85 -11.53,-40.51 -34.21,-40.12 -22.96,0.39 -26.47,21.04 -33.9,40.67 -7.12,18.82 -13.62,35.75 -20.69,54.15 -4.98,12.97 -21.68,44.94 -9.57,56.2 7.64,7.1 19.73,4.6 25.32,-2.98 18.64,-25.28 -15.85,-23.16 61.6,-23.16z"/>
    <path class="fil0" d="M596.69 139.62l15.06 -0c15.35,-0 25.11,4.93 23.69,21.26 -1.27,14.62 -12.6,17.72 -27.85,17.71l-10.91 -0.01 0.01 -38.96zm1.3 70.16c30.62,0 81.7,1.95 76.33,-57.21 -1.83,-20.19 -12.68,-32.71 -27.28,-39.47 -17.24,-7.98 -40.15,-6.1 -60.32,-5.8 -29.1,0.43 -25.99,15.56 -25.93,41.14 0.05,22.18 0.02,44.37 0,66.55 -0.01,18.99 -3.57,48.49 21.12,44.94 21.76,-3.12 10.88,-31.38 16.06,-50.15z"/>
    <path class="fil0" d="M886.27 139.62c30.05,-0 29.81,-32.26 -2.08,-32.26 -44.26,-0.01 -66.04,-6.76 -66.04,24.45l0 103.99c-0,28.74 16.61,22.37 66.04,22.37 33.76,0 34.44,-32.25 0,-32.26l-30.15 -0 -0.01 -27.54c14.94,0 66.79,2.62 47.03,-25.03 -6.88,-9.63 -31.79,-7.2 -45.45,-7.19 -2.75,-8.03 -1.57,-15.24 -1.56,-26.5l32.22 -0.01z"/>
    <path class="fil0" d="M872.7 290.77c11.66,-2.37 25.13,2.59 31.18,-5.14 -3.74,-4.77 -0.24,-4.16 -9.29,-4.16 -31.39,0 -33.27,-2.86 -33.27,12.48 -0.01,33.42 -4.19,43.68 10.4,43.68 26.26,0 28.88,2.92 32.94,-4.17 -5.53,-9.36 -12.99,-1.26 -31.97,-5.14l0.01 -14.69c11.23,-2.28 23.13,2.5 28.83,-5.13 -5.48,-7.65 -17.53,-2.83 -28.84,-5.13l0.01 -12.61z"/>
    <path class="fil0" d="M820.7 290.77c24.77,-5.05 28.2,15.67 5.26,15.67 -2.97,0 -2.62,-0.15 -5.27,-0.97l0.01 -14.69zm-0.01 24.95c12.77,-2.59 27.11,1.92 31.04,-12.59 3.8,-14.04 -6.43,-21.66 -19.53,-21.66 -17.24,0 -22.88,-2.13 -22.88,10.4 0.01,38.21 -4.13,44.18 8.87,45.62 3.8,-6.8 2.5,-12.42 2.5,-21.77z"/>
    <path class="fil0" d="M470.61 315.03c-15.07,1.73 -3.97,13.61 -21.28,14.24 -21.5,0.79 -20.81,-42.16 1.9,-39.17 14.41,1.89 7.41,15.41 19.66,10.53 8.01,-22.44 -51.55,-32.27 -48.51,11.98 2.67,38.89 59.66,26.65 48.22,2.42z"/>
    <path class="fil0" d="M621.89 327.91c0.78,-7.86 -1.13,-6.57 6.64,-8.88 1.95,-0.58 7.52,-1.43 10.27,-1.92 -0.97,12.09 -6.16,13.78 -16.9,10.8zm25.63 -25.64c-8.54,-9.29 -30.97,-8.46 -34.21,1.71 -6.23,19.6 13.52,-8.94 25.19,4.53l-7.86 4.19c-2.8,0.78 -6.62,1.01 -10.25,2.22 -8.37,2.79 -9.75,7.59 -8.77,17.45 13.07,7.4 16.05,7.42 27.17,-0.64 20.9,17.91 8.88,-29.06 8.73,-29.46z"/>
    <path class="fil0" d="M490.86 327.91c0.75,-7.5 -0.49,-6.76 6.65,-8.89 1.92,-0.57 7.53,-1.42 10.25,-1.91 -0.91,12.09 -6.16,13.76 -16.89,10.8zm25.65 -25.64c-8.51,-9.29 -30.98,-8.45 -34.21,1.71 -6.25,19.6 13.51,-8.94 25.18,4.53 -4.83,5.23 -11.28,4.13 -18.11,6.41 -8.37,2.79 -9.73,7.61 -8.79,17.45 13.12,7.36 16,7.47 27.19,-0.65 20.86,17.97 8.89,-29.04 8.75,-29.45z"/>
    <path class="fil0" d="M591.1 331.68c4.77,6.53 0.8,6.11 9.3,4.99 2.99,-7.74 1.97,-15.48 2.09,-24.1 0.2,-14.34 2.64,-15.21 -8.34,-16.54 -7.08,14.42 6.89,33.73 -15.38,32.72 -7.1,-12.37 -0.28,-22.34 -5.54,-32.73 -10.78,1.93 -8.56,4.25 -8.41,16.56 0.1,7.77 0.79,15.6 2.57,21.74 11.23,4.93 14.78,5.54 23.71,-2.64z"/>
    <path class="fil0" d="M729.33 336.67c2.97,-7.67 1.97,-13.54 2.04,-21.95 0.09,-11.12 2.41,-15.45 -5.24,-18.67 -6.85,2.88 -4.43,-2.35 -5.3,10.19 -0.93,13.35 4.51,23.31 -13.14,22.52 -7.07,-12.41 -0.28,-22.39 -5.54,-32.72 -10.78,1.89 -8.56,4.24 -8.4,16.54 0.1,7.77 0.79,15.61 2.59,21.71 11.12,4.96 14.85,5.58 23.68,-2.63 4.75,6.48 0.82,6.13 9.31,5.01z"/>
    <path class="fil0" d="M671.38 305.61c1.94,-1.02 13.43,-0.45 14.37,-2.48 0.34,-0.74 1.18,-0.48 1.7,-0.86 -6,-12.01 -11.22,-3.41 -18.8,-3.91 -4.63,-0.3 0.5,-2.8 -8.81,-1.35 -1.69,14.77 -2.67,25.37 1,39.37 12.37,2.65 7.6,-17.01 10.55,-30.77z"/>
    <path class="fil0" d="M542.43 305.61c2.76,-1.42 5.2,-0.17 8.94,-0.83l7.14 -2.51c-6.01,-11.98 -11.21,-3.42 -18.8,-3.91 -4.62,-0.3 0.47,-2.79 -8.81,-1.34 -1.7,14.76 -2.67,25.36 0.99,39.37 12.38,2.62 7.62,-16.99 10.54,-30.78z"/>
    <path class="fil0" d="M782.16 319.33c-1.46,-7.52 -5.32,-10.24 -23.17,-5.55l-0.14 6.11c6.79,1.71 17.08,1.97 23.31,-0.56z"/>
   </g>
   <g>
    <path class="fil1" d="M317.93 88.07c-4.52,-17.1 -23.87,-44.06 -24.27,-59.57 4.14,5.65 9.07,18.34 13.11,25.81 4.96,9.17 9.46,17.46 14.04,26.72 6.65,13.47 8.96,12.02 3.31,28.52 -3.59,10.5 -5.81,20.79 -9.85,30.08 -0.28,-6.97 6.16,-60.9 -11.56,-64.48 -17.84,-3.6 -14.18,39.19 -14.94,58.27 -0.96,24.1 -13.32,31.15 -13.32,67.8 0,6.31 7.71,52.44 9.52,56.13 2.68,-0.74 40.34,-18.42 41.36,-19.34 10.18,-9.15 -7,-19.46 9.29,-51.99 4.83,-9.64 18.11,-32.63 20.26,-41.03 2.11,-8.25 5.98,-48.36 3.12,-55.55 -3.15,-7.93 -26.46,-44.31 -34.14,-56.94 -9.19,-15.1 -16.46,-26.49 -29.17,-8.89l-3.84 4.08c-6.63,7.86 0.81,15.15 4.7,22.1 7.19,12.84 15.12,25.95 22.39,38.27z"/>
    <path class="fil1" d="M75.44 246.33c14.59,5.61 28.67,18.45 43.65,22.35 14.84,-73.81 -5.22,-58.85 -22.04,-114.67 -3.76,-12.49 -9.73,-56.83 -28.46,-44.19 -12.09,8.16 3.14,48.99 6.55,60.28 -5.71,-5.28 -9.66,-13.34 -14.31,-20.64 -6.45,-10.13 -10.07,-12.58 -6.7,-27.3 4.57,-19.98 8.97,-39.99 12.04,-60.5 5.28,11.36 -7.57,45.83 -6.39,62.47 4.16,-9.13 14.95,-50.45 13.4,-61.09 -4.18,-3.66 -3.03,-1.6 -5.82,-3.34 -4.1,-2.56 -9.86,-13.09 -20,-5.51 -4.96,3.71 -8.51,21.18 -10.49,28.79 -17.1,65.47 -20.58,42.55 -3.46,90.75 9.02,25.39 14.02,21.82 31.78,46.73 2.72,3.82 5.48,7.11 7.95,11 4.18,6.59 1.78,6.74 2.32,14.86z"/>
    <path class="fil2" d="M43.75 285.86c3.41,2.28 3.04,2.88 6.45,6.11 55.98,53.14 112.12,42.32 132.9,50.75 3.52,9.68 1.46,45.59 1.05,59.59 -0.16,5.59 -0.68,13.91 6.65,12.13 5.93,-1.44 4.03,-9.8 3.96,-16.93 -0.81,-72.33 -7.85,-51.27 44.98,-61.34 69.4,-13.22 89.18,-46.84 95.94,-50.17 4.98,-15.19 13.71,-8.31 21.06,-19.76 5.32,-8.29 5.53,-25.13 1.04,-33.26 -6.56,2.2 -16.3,14 -19.17,21.43 -3.64,9.44 -0.34,11.11 -0.82,17.65 -0.3,4.07 -4.2,6.88 -6.5,10.15 4.92,-15.96 2.99,-26.86 -8.18,-36.7 -3.07,2.65 -4.97,8.3 -6.28,12.22 -1.92,5.74 -1.74,10.54 -1.67,17.01 -5.16,-6.88 -6.13,-14.04 -14.04,-17.24 -18.9,29.38 13.42,68.12 15.51,22.24 2.41,2.4 2.39,3.22 4.71,4.84l5.63 2.95c0.21,-0.35 0.86,0.33 1.23,0.6 -5.79,4.26 -10.49,8.9 -17.51,13.73 -17.75,12.22 -44.49,23.77 -66.47,26.6 17.49,-22.21 -0.86,-42.43 -7.1,-45.12 -9.22,15.43 -9.4,35.43 4.73,44.65 -5.15,3.41 -19.42,4.65 -25.49,5.02 -56.95,3.48 -22.46,1.58 -80.4,-3.55 14.36,-9.56 17.53,-28.92 6.31,-46.14 -4.77,2.5 -10.99,11.6 -13.28,19.05 -4.7,15.27 3.02,19.85 6.46,26.51 -23.29,-3.53 -49.09,-14.56 -67.84,-27.64 -7.64,-5.33 -9.63,-8.08 -16.22,-13.67l4.64 -1.64c5.66,-2.46 3.69,-2.01 7.96,-9.45 0.91,-12.29 -1.45,-22.19 -5.95,-31.23 -6.72,2.27 -9.38,9.33 -11.64,16.87 -3.11,10.38 0.02,14.89 3.85,22.89l-2.06 -1.64c-0.27,-0.24 -0.67,-0.57 -0.95,-0.84 -11.61,-11.16 -0.56,-14.91 -6.64,-29.72 -3.08,-7.49 -12.46,-17.56 -18.79,-19.84 -4.26,9.02 -4.51,23.71 0.82,33.16 6.52,11.56 13.58,3.37 21.12,19.7z"/>
    <path class="fil3" d="M217.16 84.55c-4.38,-16.32 1.22,-12.07 -14.36,-26.89l-3.15 -3.31c12.17,3.17 20.06,14.34 17.51,30.2zm-32.65 -38c-46.48,7.25 -35.08,74.6 10.93,67.72 45.6,-6.82 34.79,-74.84 -10.93,-67.72z"/>
    <path class="fil4" d="M184.91 180.57l9.45 0.04c17.57,-5.17 19.53,-12.42 15.88,-32.89 -3.02,-16.95 -3.22,-30.78 -23.47,-29.36 -15.63,1.1 -17.1,15.99 -20.7,31.17 -4.43,18.67 3.54,26.72 18.84,31.04z"/>
    <path class="fil4" d="M222.13 104.85c-20.55,8.85 -9.28,24.72 -3.57,32.9 5.84,8.36 14.81,27.77 32.78,16.87 37.9,-23 -12.45,-56.98 -29.2,-49.76z"/>
    <path class="fil4" d="M114.65 132.13c0.02,13.16 13.35,27.76 27.46,24.85 9.76,-2.01 23.48,-24.58 25.64,-29.55 3.44,-7.89 -0.12,-14 -4.75,-18.88 -5.9,-6.22 -12.06,-7.28 -20.49,-3.17 -9.43,4.6 -27.89,14.3 -27.86,26.75z"/>
    <path class="fil4" d="M110.81 65.5c-10.8,3.11 -15.7,20.19 -9.64,30.99 8.5,15.15 46.08,6.65 48.98,-3.96 8.44,-30.93 -38.95,-27.14 -39.34,-27.03z"/>
    <path class="fil4" d="M253.33 66.77c-12.54,2.74 -25.5,4.7 -24.71,19.77 0.76,14.46 15.17,15.79 28.61,17.36 16.4,1.92 23.72,-4.16 23.16,-20.4 -0.53,-15.35 -11.52,-20.14 -27.06,-16.74z"/>
    <path class="fil4" d="M161.78 1.52c-11.27,3.81 -19.65,12.73 -10.31,25.86 5.34,7.51 11.72,21.54 23.34,19.25 15.19,-3 12.67,-17.04 10.36,-27.92 -2.79,-13.2 -7.71,-22.48 -23.4,-17.18z"/>
    <path class="fil4" d="M192.75 38.61c10.66,7.55 15.48,13.39 26.04,1.75 30.99,-34.16 -4.27,-45.89 -16.98,-37.41 -7.04,4.7 -9.83,24.35 -9.06,35.66z"/>
    <path class="fil4" d="M127.21 26.72c-7.27,3.75 -17.84,15.32 -10.12,27.13 2.85,4.36 23.35,13.43 31.56,12.41 12.17,-1.51 14.49,-17.21 5.89,-26.21 -3.19,-3.34 -7.89,-8.2 -11.07,-10.94 -4.8,-4.14 -9.78,-5.73 -16.27,-2.39z"/>
    <path class="fil4" d="M240.86 27.19c-6.72,3.14 -19.82,13.86 -20.86,22.12 -1.94,15.4 10.27,19.77 23.63,14.33 10.29,-4.19 22.68,-6.7 21.14,-20.72 -1.11,-10.11 -12.07,-21.27 -23.91,-15.73z"/>
    <path class="fil2" d="M266.97 321.94c7.23,-7.57 8.26,-11.94 7.4,-24.13 4.87,8.38 3.61,13.18 12.62,15.64 17.52,-10.68 5.84,-38.57 -6.08,-44.42 -3.56,8.33 -6.02,17.7 -5.93,28.46l-4.11 -6.45c-3.04,-5.87 -4.74,-10.26 -10.57,-13.47 -8.85,9.75 -10.54,41.58 6.67,44.38z"/>
    <path class="fil2" d="M98.37 269.22c-17.49,7.21 -18.74,47.03 -3.37,43.64 5.96,-1.32 5.61,-7.86 10.22,-13.83 -0.67,11.48 1.23,17.51 7.39,22.92 18.21,-3.31 12.38,-30.28 8.52,-44.48 -6.71,1.61 -7.15,3.6 -10.38,9.7l-6.37 11.77c0.13,-10.35 -0.9,-22.86 -6.01,-29.72z"/>
    <path class="fil2" d="M248.82 185.92c-16.1,-2.97 -57,35.12 -46.68,45.14 3.62,3.52 14.16,0.36 18.58,-1.9 5.96,-3.05 8.95,-6.42 12.72,-10.84 4.89,-5.74 14.87,-22.62 15.38,-32.4z"/>
    <path class="fil2" d="M130.54 186.09c1.72,10.38 9,23.64 15.07,30.87 2.62,3.12 22.04,23.07 31.51,14.02 11.62,-11.1 -31.87,-47.96 -46.58,-44.9z"/>
    <path class="fil2" d="M194.36 180.61l-9.45 -0.04c0.01,14.45 -2.99,93.59 3.05,100.35 11.07,-1.51 6.4,-23.62 6.4,-46.73 0,-17.86 -0.02,-35.72 0,-53.58z"/>
    <path class="fil2" d="M216.41 341.07c-4.09,12.41 -5.62,20.02 3.18,29.64 3.99,4.36 14.85,14.89 22.88,15.25 5.12,-20.44 -8.17,-45.99 -26.06,-44.88z"/>
    <path class="fil2" d="M137.01 385.75c7.16,0.44 19.71,-10.4 23.06,-14.69 8.16,-10.46 7.31,-17.85 3,-30.21 -18.47,-0.14 -30.02,25.24 -26.06,44.91z"/>
    <path class="fil2" d="M42.51 342.2c20.63,8.54 44.64,-1.49 43.9,-22.06 -11.78,-3.45 -16.9,-4.25 -27.55,3.13 -5.39,3.73 -15.29,12.3 -16.35,18.93z"/>
    <path class="fil2" d="M102.38 373.27c17.75,0.29 40.23,-16.09 31.99,-37.02 -12.59,0.07 -18.5,4.05 -23.83,11.95 -3.64,5.4 -10.18,17.61 -8.16,25.06z"/>
    <path class="fil2" d="M363.47 317.04c-5.02,-13.82 -44.34,-21.47 -46.8,-7.24 -1.34,7.76 11.12,15.69 20.56,15.85 9.55,0.16 20.46,-4.46 26.24,-8.61z"/>
    <path class="fil2" d="M15.91 316.97c6.09,4.41 19.02,9.48 29.16,8.4 9.86,-1.05 18.35,-7.16 18.38,-16.9 -13.54,-12.11 -41.56,-4.06 -47.54,8.5z"/>
    <path class="fil2" d="M293.35 320.36c-0.31,27.11 32.94,26.78 43.52,21.85 -0.89,-6.8 -10.59,-15.45 -16.33,-19.07 -9.02,-5.69 -16.32,-7.31 -27.19,-2.78z"/>
    <path class="fil2" d="M70.23 358.46c10.66,1.37 21.87,0.48 30.22,-4.59 4.77,-2.9 16.03,-15.38 9.22,-22.43 -11.46,-11.88 -37.52,14.73 -39.44,27.02z"/>
    <path class="fil2" d="M309.34 358.95c-1.74,-17.8 -30.34,-37.02 -39.64,-27.36 -1.79,1.86 -8.25,28.14 39.64,27.36z"/>
    <path class="fil2" d="M245.27 336.94c-10.6,23.15 25.11,39.39 31.41,35.85 4.68,-2.63 -7.07,-39.73 -31.41,-35.85z"/>
    <path class="fil2" d="M43.75 285.86c-3.07,-1.35 -22.44,-16.59 -43.75,-1.35 6.87,17.05 45.68,23.35 43.75,1.35z"/>
    <path class="fil2" d="M335.68 286.01c-2.77,21.31 37.64,16.14 43.89,-1.98 -9.22,-5.01 -24.16,-8.4 -35.15,-3.44l-8.74 5.42z"/>
    <path class="fil2" d="M189.64 287.14c-5.6,3.55 -10.95,14.56 -11.35,22.44 -0.46,9.24 4.5,21.14 11.39,21.14 12.72,0.01 14.73,-33.63 -0.04,-43.58z"/>
    <path class="fil2" d="M64.01 276.5c-1.29,11.62 -0.57,20.42 7.86,24.74 14.43,-4.49 16.12,-32.74 6.28,-43.71 -8.21,4.97 -8.82,10.69 -14.14,18.97z"/>
    <path class="fil2" d="M164.51 286.8c-4.93,3.35 -10.18,13.39 -11.37,21.27 -1.42,9.37 2.98,21.21 9.84,21.15 13.19,-0.11 14.04,-33.05 1.53,-42.41z"/>
    <path class="fil2" d="M214.76 286.59c-10.98,11.04 -11.75,45.43 2.65,42.53 3.27,-0.66 7.03,-6.56 8.01,-8.94 4.8,-11.63 -3.31,-28.9 -10.66,-33.59z"/>
    <path class="fil1" d="M71.67 105.87c0.29,-0.32 0.74,-1.22 0.85,-0.96 1.01,2.24 7.33,-20.25 7.61,-21.07 3.05,-9.04 5.79,-17.9 -5.39,-19.88 4.36,12.23 -1.62,28.11 -3.08,41.91z"/>
    <path class="fil1" d="M299.62 72.08c-0.79,-6.71 -5.03,-13.25 -7.74,-18.72 -1.24,-2.5 -3.63,-6.48 -4.7,-9.37 -2.12,-5.73 -0.26,-7.23 -3.33,-10.38 -7.57,6.31 -0.94,14.56 2.79,20.32 4.37,6.74 7.84,12.99 12.97,18.14z"/>
    <path class="fil5" d="M217.16 84.55c2.55,-15.87 -5.34,-27.03 -17.51,-30.2l3.15 3.31c15.58,14.82 9.99,10.57 14.36,26.89z"/>
   </g>
  </g>
 </g>
</svg>
